<svg width="28" height="29" viewBox="0 0 28 29" fill="none" xmlns="http://www.w3.org/2000/svg">
<g filter="url(#filter0_d_634_9512)">
<path d="M15.1072 0C10.0296 1.72803 5.74643 5.25083 4 10.5C5.72649 15.6893 9.96941 19.2515 15.1072 21C19.6759 17.4456 22.1672 14.591 24 10.5C21.3693 8.71775 20.2642 7.80021 18.1314 5.04227C15.2738 6.38147 12.7864 7.94215 10.583 10.443C11.3737 11.5796 12.6865 12.6405 13.748 13.5121C15.2949 12.365 16.4746 11.2473 17.2387 10.2883C17.7179 10.8791 18.2581 11.2722 18.7727 11.6008C17.4435 13.8825 15.9519 15.1353 14.1099 16.3319C11.3432 14.8539 9.11921 12.2957 8.03831 10.1325C10.0643 6.76193 13.2419 4.48607 16.8526 3.21774C16.2677 2.1839 15.5009 1.22111 15.1072 0Z" fill="#FFD001"/>
</g>
<defs>
<filter id="filter0_d_634_9512" x="0" y="0" width="28" height="29" filterUnits="userSpaceOnUse" color-interpolation-filters="sRGB">
<feFlood flood-opacity="0" result="BackgroundImageFix"/>
<feColorMatrix in="SourceAlpha" type="matrix" values="0 0 0 0 0 0 0 0 0 0 0 0 0 0 0 0 0 0 127 0" result="hardAlpha"/>
<feOffset dy="4"/>
<feGaussianBlur stdDeviation="2"/>
<feComposite in2="hardAlpha" operator="out"/>
<feColorMatrix type="matrix" values="0 0 0 0 0 0 0 0 0 0 0 0 0 0 0 0 0 0 0.25 0"/>
<feBlend mode="normal" in2="BackgroundImageFix" result="effect1_dropShadow_634_9512"/>
<feBlend mode="normal" in="SourceGraphic" in2="effect1_dropShadow_634_9512" result="shape"/>
</filter>
</defs>
</svg>
