<svg width="108" height="105" viewBox="0 0 108 105" fill="none" xmlns="http://www.w3.org/2000/svg">
<g clip-path="url(#clip0_628_675)" filter="url(#filter0_d_628_675)">
<path d="M71.7878 91.1305H36.212C35.5648 91.1305 35.0402 90.6058 35.0402 89.9585V62.7137C35.0402 62.0666 35.5648 61.5417 36.212 61.5417H71.7878C72.435 61.5417 72.9598 62.0664 72.9598 62.7137V89.9585C72.9596 90.6058 72.435 91.1305 71.7878 91.1305ZM37.3839 88.7867H70.6161V63.8857H37.3839V88.7867Z" fill="#1E2E36"/>
<path d="M71.7878 96.1447H36.212C35.5648 96.1447 35.0402 95.62 35.0402 94.9727V89.9583C35.0402 89.3112 35.5648 88.7864 36.212 88.7864H71.7878C72.435 88.7864 72.9598 89.311 72.9598 89.9583V94.9727C72.9596 95.62 72.435 96.1447 71.7878 96.1447ZM37.3839 93.8009H70.6161V91.1303H37.3839V93.8009Z" fill="#1E2E36"/>
<path d="M71.7878 63.8856H36.212C35.5648 63.8856 35.0402 63.3609 35.0402 62.7138V51.1624C35.0402 50.5153 35.5648 49.9905 36.212 49.9905H71.7878C72.435 49.9905 72.9598 50.5151 72.9598 51.1624V62.7138C72.9596 63.3609 72.435 63.8856 71.7878 63.8856ZM37.3839 61.5419H70.6161V52.3342H37.3839V61.5419Z" fill="#1E2E36"/>
<path d="M53.9998 60.7356C51.9024 60.7356 50.202 59.0352 50.202 56.9379C50.202 54.8406 51.9024 53.1401 53.9997 53.1401C56.0971 53.1401 57.7975 54.8405 57.7975 56.9378C57.7953 59.0344 56.0963 60.7332 53.9998 60.7356ZM53.9998 55.4839C53.1968 55.4839 52.5458 56.1349 52.5458 56.9378C52.5458 57.7408 53.1968 58.3918 53.9997 58.3918C54.8027 58.3918 55.4537 57.7408 55.4537 56.9379C55.4531 56.1352 54.8025 55.4847 53.9998 55.4839Z" fill="#1E2E36"/>
<path d="M63.8668 60.7356C61.7693 60.7356 60.069 59.0352 60.069 56.9379C60.069 54.8405 61.7693 53.1401 63.8666 53.1401C65.9641 53.1401 67.6644 54.8405 67.6644 56.9378C67.6622 59.0344 65.9632 60.7332 63.8668 60.7356ZM63.8668 55.4839C63.0637 55.4839 62.4127 56.1349 62.4127 56.9378C62.4127 57.7408 63.0637 58.3918 63.8666 58.3918C64.6697 58.3918 65.3207 57.7408 65.3207 56.9379C65.3198 56.1352 64.6695 55.4849 63.8668 55.4839Z" fill="#1E2E36"/>
<path d="M44.133 60.7358C42.0355 60.7358 40.3352 59.0354 40.3352 56.9379C40.3352 54.8405 42.0355 53.1401 44.133 53.1401C46.2305 53.1401 47.9308 54.8405 47.9308 56.9379C47.9285 59.0346 46.2295 60.7334 44.133 60.7358ZM44.133 55.4841C43.33 55.4841 42.679 56.1351 42.679 56.9381C42.679 57.7412 43.33 58.3922 44.133 58.3922C44.9361 58.3922 45.5871 57.7412 45.5871 56.9381C45.5862 56.1354 44.9357 55.4849 44.133 55.4841Z" fill="#1E2E36"/>
<path d="M64.9086 70.7368H43.0915C41.5693 70.7362 40.3359 69.5019 40.3365 67.9798C40.3372 66.4585 41.5702 65.2254 43.0915 65.2249H64.9086C66.4307 65.2242 67.6651 66.4576 67.6656 67.9798C67.6663 69.5019 66.4329 70.7363 64.9107 70.7368C64.9099 70.7368 64.9092 70.7368 64.9086 70.7368ZM43.0915 67.5684C42.8637 67.5686 42.6793 67.7534 42.6795 67.9811C42.6796 68.2086 42.8639 68.3929 43.0915 68.3931H64.9086C65.1363 68.3933 65.3211 68.2088 65.3212 67.9811C65.3214 67.7534 65.1369 67.5686 64.9092 67.5684C64.9091 67.5684 64.9087 67.5684 64.9086 67.5684H43.0915Z" fill="#1E2E36"/>
<path d="M63.8668 87.389H44.133C43.4858 87.389 42.9612 86.8643 42.9612 86.217V69.5648C42.9612 68.9177 43.4858 68.3928 44.133 68.3928H63.8668C64.5139 68.3928 65.0386 68.9175 65.0386 69.5648V86.217C65.0388 86.8643 64.5141 87.389 63.8668 87.389ZM45.3049 85.0452H62.695V70.7367H45.3049V85.0452Z" fill="#1E2E36"/>
<path d="M46.1912 52.3341C45.5441 52.3341 45.0194 51.8095 45.0194 51.1622V48.2542C45.0194 47.6071 45.5441 47.0823 46.1912 47.0823C46.8383 47.0823 47.3632 47.6069 47.3632 48.2542V51.1622C47.3632 51.8095 46.8385 52.3341 46.1912 52.3341Z" fill="#1E2E36"/>
<path d="M51.7467 52.3342C51.0996 52.3342 50.5749 51.8096 50.5749 51.1623V49.426H49.0124C48.3653 49.426 47.8405 48.9013 47.8405 48.254C47.8405 47.6067 48.3651 47.082 49.0124 47.082H51.7467C52.3938 47.082 52.9187 47.6067 52.9187 48.254V51.1623C52.9185 51.8096 52.3938 52.3342 51.7467 52.3342Z" fill="#1E2E36"/>
<path d="M40.6356 52.3342C39.9885 52.3342 39.4636 51.8096 39.4636 51.1623V48.254C39.4636 47.6069 39.9883 47.082 40.6356 47.082H43.3699C44.017 47.082 44.5417 47.6067 44.5417 48.254C44.5417 48.9013 44.017 49.426 43.3699 49.426H41.8074V51.1623C41.8075 51.8096 41.2829 52.3342 40.6356 52.3342Z" fill="#1E2E36"/>
<path d="M61.8088 52.3341C61.1617 52.3341 60.6368 51.8095 60.6368 51.1622V48.2542C60.6368 47.6071 61.1615 47.0823 61.8088 47.0823C62.4561 47.0823 62.9806 47.6069 62.9806 48.2542V51.1622C62.9806 51.8095 62.4559 52.3341 61.8088 52.3341Z" fill="#1E2E36"/>
<path d="M56.2534 52.3342C55.6063 52.3342 55.0814 51.8096 55.0814 51.1623V48.254C55.0814 47.6069 55.6061 47.082 56.2534 47.082H58.9877C59.6348 47.082 60.1596 47.6067 60.1596 48.254C60.1596 48.9013 59.635 49.426 58.9877 49.426H57.4252V51.1623C57.4253 51.8096 56.9007 52.3342 56.2534 52.3342Z" fill="#1E2E36"/>
<path d="M67.3645 52.3342C66.7173 52.3342 66.1927 51.8096 66.1927 51.1623V49.426H64.6302C63.983 49.426 63.4584 48.9013 63.4584 48.254C63.4584 47.6067 63.983 47.082 64.6302 47.082H67.3645C68.0116 47.082 68.5364 47.6067 68.5364 48.254V51.1623C68.5362 51.8096 68.0116 52.3342 67.3645 52.3342Z" fill="#1E2E36"/>
<path d="M77.452 56.6021H75.3542C74.707 56.6021 74.1824 56.0774 74.1824 55.4303C74.1824 54.7831 74.707 54.2583 75.3542 54.2583H77.4521C78.0993 54.2583 78.6239 54.783 78.6239 55.4303C78.6239 56.0776 78.0993 56.6021 77.452 56.6021Z" fill="#1E2E36"/>
<path d="M81.0183 96.1448H71.788C71.1409 96.1448 70.6162 95.6201 70.6162 94.9728V51.1623C70.6162 50.5151 71.1409 49.9905 71.788 49.9905H81.0183C81.6654 49.9905 82.1902 50.5151 82.1902 51.1623V94.9728C82.1901 95.6201 81.6654 96.1448 81.0183 96.1448ZM72.9598 93.801H79.8463V52.3342H72.9598V93.801Z" fill="#1E2E36"/>
<path d="M102.828 74.2395H81.0182C80.3711 74.2395 79.8464 73.7148 79.8464 73.0677V51.1624C79.8464 50.5153 80.3711 49.9905 81.0182 49.9905H102.828C103.475 49.9905 104 50.5151 104 51.1624V73.0677C104 73.7148 103.475 74.2395 102.828 74.2395ZM82.19 71.8958H101.656V52.3342H82.19V71.8958Z" fill="#1E2E36"/>
<path d="M94.7335 56.6021H89.1127C88.4656 56.6021 87.9409 56.0774 87.9409 55.4303C87.9409 54.7831 88.4656 54.2583 89.1127 54.2583H94.7335C95.3806 54.2583 95.9055 54.783 95.9055 55.4303C95.9055 56.0776 95.3806 56.6021 94.7335 56.6021Z" fill="#1E2E36"/>
<path d="M23.5024 56.6021H17.8816C17.2345 56.6021 16.7098 56.0774 16.7098 55.4303C16.7098 54.7831 17.2345 54.2583 17.8816 54.2583H23.5022C24.1494 54.2583 24.674 54.783 24.674 55.4303C24.674 56.0776 24.1495 56.6021 23.5024 56.6021Z" fill="#1E2E36"/>
<path d="M102.828 96.1448H81.0182C80.3711 96.1448 79.8464 95.6201 79.8464 94.9728V73.0677C79.8464 72.4206 80.3711 71.8958 81.0182 71.8958H102.828C103.475 71.8958 104 72.4204 104 73.0677V94.9728C104 95.6201 103.475 96.1448 102.828 96.1448ZM82.19 93.801H101.656V74.2395H82.19V93.801Z" fill="#1E2E36"/>
<path d="M94.7335 78.5071H89.1127C88.4656 78.5071 87.9409 77.9824 87.9409 77.3351C87.9409 76.688 88.4656 76.1633 89.1127 76.1633H94.7335C95.3806 76.1633 95.9055 76.688 95.9055 77.3351C95.9053 77.9824 95.3806 78.5071 94.7335 78.5071Z" fill="#1E2E36"/>
<path d="M20.6919 96.1448H5.17179C4.52466 96.1448 4 95.6202 4 94.9729V62.7137C4 62.0666 4.52466 61.5417 5.17179 61.5417H20.6919C21.3391 61.5417 21.8637 62.0664 21.8637 62.7137V94.9729C21.8639 95.6202 21.3392 96.1448 20.6919 96.1448ZM6.34375 93.8011H19.5201V63.8857H6.34375V93.8011Z" fill="#1E2E36"/>
<path d="M36.2121 96.1448H20.6919C20.0448 96.1448 19.5201 95.6202 19.5201 94.9729V62.7137C19.5201 62.0666 20.0448 61.5417 20.6919 61.5417H36.2121C36.8592 61.5417 37.3839 62.0664 37.3839 62.7137V94.9729C37.384 95.6202 36.8594 96.1448 36.2121 96.1448ZM21.8639 93.8011H35.0403V63.8857H21.8639V93.8011Z" fill="#1E2E36"/>
<path d="M24.3975 81.9658C23.7504 81.9658 23.2257 81.4411 23.2257 80.794V76.893C23.2257 76.2459 23.7504 75.7212 24.3975 75.7212C25.0446 75.7212 25.5693 76.2459 25.5693 76.893V80.7942C25.5693 81.4411 25.0446 81.9658 24.3975 81.9658Z" fill="#1E2E36"/>
<path d="M16.9865 81.9658C16.3394 81.9658 15.8147 81.4411 15.8147 80.794V76.893C15.8147 76.2459 16.3394 75.7212 16.9865 75.7212C17.6336 75.7212 18.1583 76.2459 18.1583 76.893V80.7942C18.1583 81.4411 17.6336 81.9658 16.9865 81.9658Z" fill="#1E2E36"/>
<path d="M36.212 63.8856H5.17179C4.52466 63.8856 4 63.3609 4 62.7138V51.1624C4 50.5153 4.52466 49.9905 5.17179 49.9905H36.212C36.8592 49.9905 37.3838 50.5151 37.3838 51.1624V62.7138C37.384 63.3609 36.8593 63.8856 36.212 63.8856ZM6.34375 61.5419H35.0403V52.3342H6.34375V61.5419Z" fill="#1E2E36"/>
<path d="M70.4667 27.7771H37.5331C36.1569 27.7755 35.0417 26.6603 35.0402 25.2841V21.9188C35.0417 20.5426 36.1569 19.4275 37.5331 19.426H70.4669C71.8431 19.4275 72.9583 20.5428 72.9598 21.9189V25.2843C72.9583 26.6603 71.8429 27.7755 70.4667 27.7771ZM37.5331 21.7696C37.4508 21.7698 37.3841 21.8365 37.3839 21.9188V25.2841C37.3841 25.3664 37.4508 25.4331 37.5331 25.4333H70.4669C70.5492 25.4331 70.6159 25.3664 70.6161 25.2841V21.9188C70.6159 21.8365 70.5492 21.7698 70.4669 21.7696H37.5331Z" fill="#1E2E36"/>
<path d="M68.0241 21.7696H39.9759C38.6122 21.7696 37.5066 20.6642 37.5065 19.3005C37.5065 18.5409 37.856 17.8236 38.4543 17.3556L39.3548 16.651C42.9409 13.8627 45.0328 9.57008 45.0192 5.02751C45.0192 4.38038 45.5438 3.85571 46.1909 3.85571H61.8087C62.4558 3.85571 62.9805 4.38038 62.9805 5.02751C62.9668 9.57008 65.0587 13.8627 68.645 16.651L69.5454 17.3556C70.6195 18.1958 70.8092 19.7476 69.969 20.8216C69.5013 21.4201 68.7837 21.7698 68.0241 21.7696ZM47.3237 6.1993C47.006 11.0426 44.6311 15.5184 40.799 18.497L39.8984 19.2015C39.8438 19.2443 39.8342 19.3231 39.8769 19.3777C39.9007 19.4081 39.9372 19.4258 39.9757 19.4258H68.0241C68.0934 19.4258 68.1496 19.3696 68.1496 19.3003C68.1496 19.2618 68.1319 19.2253 68.1016 19.2017H68.1015L67.2011 18.4971C63.3689 15.5186 60.9942 11.0427 60.6764 6.19947H47.3237V6.1993Z" fill="#1E2E36"/>
<path d="M99.2003 27.7771H80.5516C78.9297 27.7771 77.6146 26.4622 77.6146 24.8401C77.6146 23.2179 78.9295 21.9031 80.5516 21.9031H99.2003C100.822 21.9031 102.137 23.2179 102.137 24.8401C102.137 26.4622 100.822 27.7771 99.2003 27.7771ZM80.5516 24.247C80.2241 24.247 79.9584 24.5125 79.9584 24.8402C79.9584 25.1678 80.2239 25.4335 80.5516 25.4335H99.2003C99.5278 25.4335 99.7935 25.168 99.7935 24.8402C99.7935 24.5127 99.528 24.247 99.2003 24.247H80.5516Z" fill="#1E2E36"/>
<path d="M27.4483 27.7771H8.79967C7.17771 27.7771 5.86267 26.4622 5.86267 24.8401C5.86267 23.2179 7.17754 21.9031 8.79967 21.9031H27.4483C29.0703 21.9031 30.3853 23.2179 30.3853 24.8401C30.3853 26.4622 29.0705 27.7771 27.4483 27.7771ZM8.79967 24.247C8.47213 24.247 8.20642 24.5125 8.20642 24.8402C8.20642 25.1678 8.47197 25.4335 8.79967 25.4335H27.4483C27.7759 25.4335 28.0416 25.168 28.0416 24.8402C28.0416 24.5127 27.776 24.247 27.4483 24.247H8.79967Z" fill="#1E2E36"/>
<path d="M25.5774 24.247H20.8103C20.1632 24.247 19.6385 23.7223 19.6385 23.0752V19.0463C19.6385 18.3992 20.1632 17.8745 20.8103 17.8745H25.5774C26.2245 17.8745 26.7492 18.3992 26.7492 19.0463V23.0752C26.7494 23.7223 26.2247 24.247 25.5774 24.247ZM21.9823 21.9032H24.4056V20.2181H21.9823V21.9032Z" fill="#1E2E36"/>
<path d="M26.7005 20.2181H19.6873C19.0402 20.2181 18.5155 19.6934 18.5155 19.0463C18.5155 18.3992 19.0402 17.8745 19.6873 17.8745H26.7005C27.3476 17.8745 27.8723 18.3992 27.8723 19.0463C27.8723 19.6934 27.3476 20.2181 26.7005 20.2181Z" fill="#1E2E36"/>
<path d="M15.4375 24.247H10.6704C10.0233 24.247 9.49866 23.7223 9.49866 23.0752V19.0463C9.49866 18.3992 10.0233 17.8745 10.6704 17.8745H15.4375C16.0846 17.8745 16.6093 18.3992 16.6093 19.0463V23.0752C16.6093 23.7223 16.0846 24.247 15.4375 24.247ZM11.8422 21.9032H14.2656V20.2181H11.8424L11.8422 21.9032Z" fill="#1E2E36"/>
<path d="M16.5605 20.2181H9.54752C8.9004 20.2181 8.37573 19.6934 8.37573 19.0463C8.37573 18.3992 8.9004 17.8745 9.54752 17.8745H16.5607C17.2078 17.8745 17.7325 18.3992 17.7325 19.0463C17.7325 19.6934 17.2078 20.2181 16.5605 20.2181Z" fill="#1E2E36"/>
<path d="M25.5774 20.218H20.8103C20.1632 20.218 19.6385 19.6933 19.6385 19.0462V15.0175C19.6385 14.3704 20.1632 13.8457 20.8103 13.8457H25.5774C26.2245 13.8457 26.7492 14.3704 26.7492 15.0175V19.0462C26.7494 19.6933 26.2247 20.218 25.5774 20.218ZM21.9823 17.8743H24.4056V16.1893H21.9823V17.8743Z" fill="#1E2E36"/>
<path d="M26.7005 16.1893H19.6873C19.0402 16.1893 18.5155 15.6646 18.5155 15.0175C18.5155 14.3704 19.0402 13.8457 19.6873 13.8457H26.7005C27.3476 13.8457 27.8723 14.3704 27.8723 15.0175C27.8723 15.6646 27.3476 16.1893 26.7005 16.1893Z" fill="#1E2E36"/>
<path d="M15.4375 20.218H10.6704C10.0233 20.218 9.49866 19.6933 9.49866 19.0462V15.0175C9.49866 14.3704 10.0233 13.8457 10.6704 13.8457H15.4375C16.0846 13.8457 16.6093 14.3704 16.6093 15.0175V19.0462C16.6093 19.6933 16.0846 20.218 15.4375 20.218ZM11.8422 17.8743H14.2656V16.1893H11.8424L11.8422 17.8743Z" fill="#1E2E36"/>
<path d="M16.5605 16.1893H9.54752C8.9004 16.1893 8.37573 15.6646 8.37573 15.0175C8.37573 14.3704 8.9004 13.8457 9.54752 13.8457H16.5607C17.2078 13.8457 17.7325 14.3704 17.7325 15.0175C17.7325 15.6646 17.2078 16.1893 16.5605 16.1893Z" fill="#1E2E36"/>
<path d="M89.876 24.247C85.6985 24.2463 82.3123 20.8591 82.313 16.6816C82.3132 15.2588 82.7147 13.8647 83.4714 12.6598C83.686 12.3191 84.0605 12.1123 84.4632 12.1123H95.2887C95.6912 12.1123 96.0655 12.3189 96.2801 12.6596C98.502 16.1971 97.4355 20.8662 93.898 23.0882C92.6931 23.8451 91.299 24.2466 89.876 24.247ZM85.1547 14.4561C83.9263 17.0637 85.0444 20.1733 87.652 21.4017C90.2596 22.6301 93.3692 21.512 94.5976 18.9044C95.2611 17.4959 95.2611 15.8647 94.5976 14.4562H85.1547V14.4561Z" fill="#1E2E36"/>
<path d="M89.7668 14.4561C89.1197 14.4561 88.5948 13.9315 88.5948 13.2843V5.74479C88.5948 5.09766 89.1195 4.573 89.7668 4.573C90.4141 4.573 90.9386 5.09766 90.9386 5.74479V13.2843C90.9386 13.9315 90.4139 14.4561 89.7668 14.4561Z" fill="#1E2E36"/>
<path d="M89.7669 14.4562C89.1198 14.4562 88.5951 13.9313 88.5951 13.2842C88.5951 12.9734 88.7186 12.6754 88.9383 12.4556L92.9934 8.40057C93.4556 7.94753 94.1976 7.95513 94.6507 8.4173C95.0973 8.87304 95.0973 9.60227 94.6505 10.0578L90.5954 14.1129C90.3758 14.333 90.0777 14.4567 89.7669 14.4562Z" fill="#1E2E36"/>
<path d="M89.7669 14.456C89.4561 14.4564 89.1578 14.3329 88.9383 14.1128L84.8832 10.0577C84.4207 9.60502 84.4128 8.86296 84.8657 8.40046C85.3184 7.93795 86.0604 7.93002 86.5229 8.38289C86.5289 8.38863 86.5346 8.39454 86.5405 8.40046L90.5956 12.4555C91.0532 12.9131 91.0532 13.6552 90.5956 14.1128C90.3757 14.3326 90.0775 14.456 89.7669 14.456Z" fill="#1E2E36"/>
<path d="M64.8572 49.4261H59.1421C55.9016 49.4224 53.2756 46.7964 53.2719 43.5558V40.8011C53.2719 40.154 53.7965 39.6292 54.4438 39.6292H69.5555C70.2026 39.6292 70.7275 40.1538 70.7275 40.8011V43.5558C70.7237 46.7964 68.0977 49.4224 64.8572 49.4261ZM55.6158 41.9731V43.556C55.618 45.5028 57.1955 47.0803 59.1423 47.0825H64.8573C66.8041 47.0803 68.3817 45.5028 68.3839 43.556V41.9731H55.6158Z" fill="#1E2E36"/>
<path d="M71.7879 44.0384H69.5555C68.9084 44.0384 68.3835 43.5137 68.3835 42.8666C68.3835 42.2195 68.9082 41.6948 69.5555 41.6948H71.7879C72.4351 41.6948 72.9599 42.2195 72.9599 42.8666C72.9599 43.5137 72.4351 44.0384 71.7879 44.0384Z" fill="#1E2E36"/>
<path d="M54.0623 44.0384H51.8299C51.1827 44.0384 50.6581 43.5137 50.6581 42.8666C50.6581 42.2195 51.1827 41.6948 51.8299 41.6948H54.0623C54.7094 41.6948 55.2343 42.2195 55.2343 42.8666C55.2343 43.5137 54.7096 44.0384 54.0623 44.0384Z" fill="#1E2E36"/>
<path d="M69.5555 41.973H54.4438C53.7967 41.973 53.2719 41.4483 53.2719 40.8012C53.2719 40.5642 53.3436 40.3328 53.4779 40.1373C55.1175 37.7517 58.3827 36.2698 61.9996 36.2698C65.6165 36.2698 68.8815 37.7517 70.5212 40.1373C70.8877 40.6706 70.7526 41.4004 70.2193 41.7669C70.0241 41.901 69.7926 41.973 69.5555 41.973ZM57.5906 39.6292H66.4087C63.6252 38.2747 60.3739 38.2747 57.5906 39.6292Z" fill="#1E2E36"/>
<path d="M60.5687 38.7025C60.2817 38.7028 60.0045 38.5974 59.7903 38.4062C58.4156 37.1858 58.2906 35.0819 59.5111 33.7071C60.7315 32.3324 62.8354 32.2074 64.2102 33.4278C65.5849 34.6483 65.7099 36.7522 64.4895 38.127C64.4021 38.2255 64.3089 38.3185 64.2104 38.406C63.7297 38.8393 62.9886 38.8008 62.5553 38.3201C62.1221 37.8393 62.1606 37.0983 62.6413 36.665C62.645 36.6616 62.6488 36.6582 62.6525 36.655C63.0602 36.2947 63.0986 35.6723 62.7384 35.2647C62.3781 34.8571 61.7557 34.8185 61.3481 35.1787C60.9405 35.539 60.902 36.1615 61.2621 36.5691C61.289 36.5995 61.3175 36.628 61.3479 36.6549C61.8315 37.0849 61.8749 37.8256 61.4449 38.3093C61.2222 38.5596 60.9035 38.7025 60.5687 38.7025Z" fill="#1E2E36"/>
<path d="M17.9029 52.3343H12.953C12.3059 52.3343 11.7812 51.8097 11.7812 51.1624V38.5754C11.7812 37.9282 12.3059 37.4036 12.953 37.4036H17.9029C18.55 37.4036 19.0747 37.9282 19.0747 38.5754V51.1624C19.0748 51.8097 18.5502 52.3343 17.9029 52.3343ZM14.125 49.9906H16.7311V39.7473H14.125V49.9906Z" fill="#1E2E36"/>
<path d="M12.953 52.3343H8.00334C7.35621 52.3343 6.83154 51.8097 6.83154 51.1624V38.5754C6.83154 37.9282 7.35621 37.4036 8.00334 37.4036H12.953C13.6001 37.4036 14.1248 37.9282 14.1248 38.5754V51.1624C14.125 51.8097 13.6003 52.3343 12.953 52.3343ZM9.17513 49.9906H11.781V39.7473H9.1753L9.17513 49.9906Z" fill="#1E2E36"/>
<path d="M28.7744 52.3342H26.5644C24.3282 52.3317 22.5163 50.5195 22.5135 48.2834V44.1744C22.5135 43.5273 23.0382 43.0024 23.6853 43.0024H31.6533C32.3004 43.0024 32.8251 43.5271 32.8251 44.1744V48.2834C32.8227 50.5195 31.0105 52.3317 28.7744 52.3342ZM24.8575 45.3462V48.2834C24.8585 49.2258 25.6222 49.9893 26.5646 49.9905H28.7744C29.7168 49.9894 30.4805 49.2258 30.4815 48.2834V45.3464H24.8575V45.3462Z" fill="#1E2E36"/>
<path d="M32.3387 45.346H23C21.7781 45.3447 20.7879 44.3545 20.7865 43.1325V41.9171C20.7879 40.6952 21.7782 39.705 23 39.7036H32.3387C33.5607 39.705 34.5509 40.6952 34.5522 41.9171V43.1325C34.5509 44.3545 33.5607 45.3447 32.3387 45.346ZM23.1303 43.0023H32.2086V42.0474H23.1303V43.0023Z" fill="#1E2E36"/>
<path d="M81.9696 52.3342H75.9363C75.2892 52.3342 74.7645 51.8096 74.7645 51.1623V42.9156C74.7645 42.2685 75.2892 41.7437 75.9363 41.7437H81.9696C82.6167 41.7437 83.1416 42.2683 83.1416 42.9156V51.1623C83.1414 51.8096 82.6167 52.3342 81.9696 52.3342ZM77.1083 49.9905H80.7978V44.0876H77.1083V49.9905Z" fill="#1E2E36"/>
<path d="M81.9696 44.0875H75.9363C75.2892 44.0875 74.7645 43.5628 74.7645 42.9157V39.3133C74.7645 38.6662 75.2892 38.1414 75.9363 38.1414H81.9696C82.6167 38.1414 83.1416 38.666 83.1416 39.3133V42.9157C83.1414 43.5628 82.6167 44.0875 81.9696 44.0875ZM77.1083 41.7437H80.7978V40.4851H77.1083V41.7437Z" fill="#1E2E36"/>
<path d="M96.4371 48.3708C94.5225 48.3708 93.0227 46.5278 93.0227 44.1749C93.0227 41.822 94.5224 39.9788 96.4371 39.9788C98.3516 39.9788 99.8514 41.822 99.8514 44.1749C99.8514 46.5278 98.3516 48.3708 96.4371 48.3708ZM96.4371 42.3225C95.9317 42.3225 95.3665 43.1146 95.3665 44.1749C95.3665 45.235 95.9317 46.0271 96.4371 46.0271C96.9425 46.0271 97.5077 45.235 97.5077 44.1749C97.5077 43.1147 96.9425 42.3225 96.4371 42.3225Z" fill="#1E2E36"/>
<path d="M96.4369 42.3002C95.8906 42.3002 95.4166 41.9226 95.2946 41.39L93.5036 33.5765C93.1323 31.9564 94.1445 30.342 95.7646 29.9706C97.3847 29.5991 98.999 30.6115 99.3705 32.2316C99.472 32.6741 99.472 33.1339 99.3705 33.5765L97.5793 41.39C97.457 41.9226 96.9832 42.3002 96.4369 42.3002ZM96.4369 32.2385C96.0693 32.2385 95.7712 32.5365 95.7712 32.9042C95.7712 32.9542 95.7767 33.0042 95.7881 33.053L96.4369 35.8838L97.0859 33.0532C97.1681 32.6949 96.9441 32.3376 96.5859 32.2555C96.537 32.2441 96.487 32.2385 96.4369 32.2385Z" fill="#1E2E36"/>
<path d="M88.0078 42.3002C87.4615 42.3002 86.9875 41.9227 86.8656 41.3903L85.0743 33.5767C84.7029 31.9566 85.7152 30.3421 87.3353 29.9708C88.9554 29.5994 90.57 30.6117 90.9412 32.2318C91.0428 32.6744 91.0428 33.1342 90.9412 33.5767L89.15 41.3903C89.0281 41.9229 88.5541 42.3002 88.0078 42.3002ZM88.0078 32.2386C87.6401 32.2386 87.3421 32.5365 87.3421 32.9043C87.3421 32.9544 87.3477 33.0043 87.359 33.0533L88.0078 35.884L88.6566 33.0533C88.7389 32.6948 88.5149 32.3377 88.1566 32.2556C88.1078 32.2441 88.058 32.2386 88.0078 32.2386Z" fill="#1E2E36"/>
<path d="M90.7007 46.0877H85.315C84.7321 46.0877 84.2378 45.6592 84.1551 45.0822C83.9527 43.7295 84.348 42.3556 85.238 41.3171C85.9951 40.4436 87.0046 39.9426 88.0078 39.9426C89.011 39.9426 90.0208 40.4436 90.778 41.3171C91.6679 42.3556 92.063 43.7296 91.8606 45.0822C91.7779 45.6594 91.2836 46.0877 90.7007 46.0877ZM86.5355 43.744H89.4804C89.3914 43.4151 89.2296 43.1104 89.0069 42.8523C88.7089 42.5085 88.3169 42.2864 88.0078 42.2864C87.6986 42.2864 87.3067 42.5085 87.0089 42.8523C86.7865 43.1102 86.6245 43.4151 86.5355 43.744Z" fill="#1E2E36"/>
</g>
<defs>
<filter id="filter0_d_628_675" x="0" y="0" width="108" height="108" filterUnits="userSpaceOnUse" color-interpolation-filters="sRGB">
<feFlood flood-opacity="0" result="BackgroundImageFix"/>
<feColorMatrix in="SourceAlpha" type="matrix" values="0 0 0 0 0 0 0 0 0 0 0 0 0 0 0 0 0 0 127 0" result="hardAlpha"/>
<feOffset dy="4"/>
<feGaussianBlur stdDeviation="2"/>
<feComposite in2="hardAlpha" operator="out"/>
<feColorMatrix type="matrix" values="0 0 0 0 0 0 0 0 0 0 0 0 0 0 0 0 0 0 0.25 0"/>
<feBlend mode="normal" in2="BackgroundImageFix" result="effect1_dropShadow_628_675"/>
<feBlend mode="normal" in="SourceGraphic" in2="effect1_dropShadow_628_675" result="shape"/>
</filter>
<clipPath id="clip0_628_675">
<rect width="100" height="100" fill="white" transform="translate(4)"/>
</clipPath>
</defs>
</svg>
