<svg width="108" height="102" viewBox="0 0 108 102" fill="none" xmlns="http://www.w3.org/2000/svg">
<g clip-path="url(#clip0_628_578)" filter="url(#filter0_d_628_578)">
<path d="M97.5451 42.0745H10.4549C9.80774 42.0745 9.28308 41.5499 9.28308 40.9028V15.4306C9.28308 14.7835 9.80774 14.2588 10.4549 14.2588H97.5451C98.1922 14.2588 98.717 14.7835 98.717 15.4306V40.9026C98.7168 41.5499 98.1922 42.0745 97.5451 42.0745ZM11.6268 39.7308H96.3733V16.6025H11.6268V39.7308Z" fill="#1E2E36"/>
<path d="M97.5451 67.5466H10.4549C9.80774 67.5466 9.28308 67.022 9.28308 66.3747V40.9027C9.28308 40.2555 9.80774 39.7307 10.4549 39.7307H97.5451C98.1922 39.7307 98.717 40.2554 98.717 40.9027V66.3747C98.7168 67.022 98.1922 67.5466 97.5451 67.5466ZM11.6268 65.2029H96.3733V42.0746H11.6268V65.2029Z" fill="#1E2E36"/>
<path d="M97.5451 93.0186H10.4549C9.80774 93.0186 9.28308 92.494 9.28308 91.8467V66.3748C9.28308 65.7277 9.80774 65.2029 10.4549 65.2029H97.5451C98.1922 65.2029 98.717 65.7275 98.717 66.3748V91.8468C98.7168 92.494 98.1922 93.0186 97.5451 93.0186ZM11.6268 90.6749H96.3733V67.5466H11.6268V90.6749Z" fill="#1E2E36"/>
<path d="M56.1919 29.3386H51.8081C51.1609 29.3386 50.6361 28.814 50.6361 28.1668C50.6361 27.5197 51.1608 26.9949 51.8081 26.9949H56.1919C56.839 26.9949 57.3638 27.5195 57.3638 28.1668C57.3638 28.8141 56.839 29.3386 56.1919 29.3386Z" fill="#1E2E36"/>
<path d="M56.1919 54.8107H51.8081C51.1609 54.8107 50.6361 54.2861 50.6361 53.6388C50.6361 52.9915 51.1608 52.4668 51.8081 52.4668H56.1919C56.839 52.4668 57.3638 52.9915 57.3638 53.6388C57.3638 54.2861 56.839 54.8107 56.1919 54.8107Z" fill="#1E2E36"/>
<path d="M56.1919 80.2827H51.8081C51.1609 80.2827 50.6361 79.7581 50.6361 79.1108C50.6361 78.4635 51.1608 77.939 51.8081 77.939H56.1919C56.839 77.939 57.3638 78.4636 57.3638 79.1108C57.3638 79.7579 56.839 80.2827 56.1919 80.2827Z" fill="#1E2E36"/>
<path d="M100.875 16.6027H7.12501C5.4 16.6006 4.00203 15.2027 4 13.4777V10.1062C4.00203 8.3812 5.4 6.98323 7.12501 6.9812H100.875C102.6 6.98323 103.998 8.3812 104 10.1062V13.4777C103.998 15.2027 102.6 16.6006 100.875 16.6027ZM7.12501 9.32496C6.69375 9.32546 6.34426 9.67496 6.34375 10.1062V13.4777C6.34426 13.9089 6.69375 14.2584 7.12501 14.2589H100.875C101.306 14.2584 101.656 13.9089 101.656 13.4777V10.1062C101.656 9.67496 101.306 9.32546 100.875 9.32496H7.12501Z" fill="#1E2E36"/>
</g>
<defs>
<filter id="filter0_d_628_578" x="0" y="0" width="108" height="108" filterUnits="userSpaceOnUse" color-interpolation-filters="sRGB">
<feFlood flood-opacity="0" result="BackgroundImageFix"/>
<feColorMatrix in="SourceAlpha" type="matrix" values="0 0 0 0 0 0 0 0 0 0 0 0 0 0 0 0 0 0 127 0" result="hardAlpha"/>
<feOffset dy="4"/>
<feGaussianBlur stdDeviation="2"/>
<feComposite in2="hardAlpha" operator="out"/>
<feColorMatrix type="matrix" values="0 0 0 0 0 0 0 0 0 0 0 0 0 0 0 0 0 0 0.25 0"/>
<feBlend mode="normal" in2="BackgroundImageFix" result="effect1_dropShadow_628_578"/>
<feBlend mode="normal" in="SourceGraphic" in2="effect1_dropShadow_628_578" result="shape"/>
</filter>
<clipPath id="clip0_628_578">
<rect width="100" height="100" fill="white" transform="translate(4)"/>
</clipPath>
</defs>
</svg>
