<svg width="108" height="100" viewBox="0 0 108 100" fill="none" xmlns="http://www.w3.org/2000/svg">
<g filter="url(#filter0_d_628_516)">
<path d="M79.8968 52.6612H28.1031C25.6154 52.6583 23.5994 50.6424 23.5967 48.1547V15.6307C23.5996 13.143 25.6154 11.127 28.1031 11.1243H79.8968C82.3844 11.1271 84.4005 13.143 84.4032 15.6307V48.1547C84.4005 50.6424 82.3846 52.6585 79.8968 52.6612ZM28.1031 13.468C26.9092 13.4694 25.9418 14.4369 25.9404 15.6307V48.1547C25.9418 49.3487 26.9094 50.3161 28.1031 50.3174H79.8968C81.0907 50.3161 82.0581 49.3485 82.0594 48.1547V15.6307C82.0581 14.4368 81.0905 13.4694 79.8968 13.468H28.1031Z" fill="#44C697"/>
<path d="M79.8968 81.8929H28.1031C25.6154 81.89 23.5994 79.8741 23.5967 77.3864V54.8241C23.5996 52.3364 25.6154 50.3203 28.1031 50.3176H79.8968C82.3844 50.3205 84.4005 52.3364 84.4032 54.8241V77.3864C84.4005 79.8741 82.3846 81.89 79.8968 81.8929ZM28.1031 52.6612C26.9092 52.6626 25.9418 53.6301 25.9404 54.8239V77.3863C25.9418 78.5802 26.9094 79.5476 28.1031 79.5489H79.8968C81.0907 79.5476 82.0581 78.58 82.0594 77.3863V54.8241C82.0581 53.6301 81.0905 52.6627 79.8968 52.6614H28.1031V52.6612Z" fill="#44C697"/>
<path d="M99.4936 81.8928H86.5662C84.0785 81.8899 82.0625 79.874 82.0598 77.3864V37.8441C82.0626 35.3564 84.0785 33.3403 86.5662 33.3376H99.4936C101.981 33.3405 103.997 35.3564 104 37.8441V77.3862C103.997 79.874 101.981 81.8899 99.4936 81.8928ZM86.566 35.6814C85.3721 35.6828 84.4047 36.6503 84.4033 37.8441V77.3862C84.4047 78.5801 85.3723 79.5475 86.566 79.5489H99.4934C100.687 79.5475 101.655 78.5799 101.656 77.3862V37.8441C101.655 36.6502 100.687 35.6828 99.4934 35.6814H86.566Z" fill="#44C697"/>
<path d="M21.434 81.8928H8.5066C6.01875 81.8899 4.00287 79.874 4 77.3862V37.8441C4.00287 35.3564 6.01875 33.3403 8.50643 33.3376H21.4338C23.9215 33.3405 25.9375 35.3564 25.9402 37.8441V77.3862C25.9375 79.874 23.9217 81.8899 21.434 81.8928ZM8.50643 35.6814C7.31251 35.6828 6.34511 36.6503 6.34375 37.8441V77.3862C6.34511 78.5801 7.31267 79.5475 8.50643 79.5489H21.4338C22.6277 79.5475 23.5951 78.5799 23.5965 77.3862V37.8441C23.5951 36.6502 22.6276 35.6828 21.4338 35.6814H8.50643Z" fill="#44C697"/>
<path d="M83.2314 67.2771H24.7685C24.1213 67.2771 23.5967 66.7524 23.5967 66.1053C23.5967 65.4582 24.1213 64.9333 24.7685 64.9333H83.2314C83.8785 64.9333 84.4034 65.458 84.4034 66.1053C84.4034 66.7526 83.8787 67.2771 83.2314 67.2771Z" fill="#44C697"/>
<path d="M14.9701 88.8759C13.0287 88.8782 11.336 87.5558 10.8686 85.6715L9.70472 81.0042C9.54796 80.3764 9.93006 79.7404 10.5578 79.5836C10.6507 79.5605 10.7459 79.5487 10.8415 79.5488H19.0987C19.7458 79.5488 20.2704 80.0733 20.2704 80.7205C20.2704 80.8161 20.2588 80.9115 20.2357 81.0042L19.0716 85.6715C18.6042 87.556 16.9115 88.8782 14.9701 88.8759ZM12.3415 81.8928L13.1426 85.1044C13.3943 86.1137 14.4166 86.7279 15.4258 86.4762C16.1015 86.3076 16.6291 85.7801 16.7976 85.1044L17.5987 81.8928H12.3415Z" fill="#44C697"/>
<path d="M93.0298 88.876C91.0883 88.8783 89.3955 87.5559 88.9281 85.6716L87.7643 81.0045C87.6075 80.3766 87.9896 79.7406 88.6173 79.5839C88.7102 79.5607 88.8055 79.5489 88.9011 79.5491H97.1582C97.8053 79.5491 98.33 80.0736 98.33 80.7207C98.33 80.8163 98.3184 80.9118 98.2952 81.0045L97.1314 85.6716C96.664 87.5559 94.9712 88.8783 93.0298 88.876ZM90.4013 81.8928L91.2021 85.1043C91.4538 86.1136 92.4761 86.728 93.4854 86.4763C94.1613 86.3077 94.6888 85.7802 94.8574 85.1043L95.6582 81.8927L90.4013 81.8928Z" fill="#44C697"/>
</g>
<defs>
<filter id="filter0_d_628_516" x="0" y="0" width="108" height="108" filterUnits="userSpaceOnUse" color-interpolation-filters="sRGB">
<feFlood flood-opacity="0" result="BackgroundImageFix"/>
<feColorMatrix in="SourceAlpha" type="matrix" values="0 0 0 0 0 0 0 0 0 0 0 0 0 0 0 0 0 0 127 0" result="hardAlpha"/>
<feOffset dy="4"/>
<feGaussianBlur stdDeviation="2"/>
<feComposite in2="hardAlpha" operator="out"/>
<feColorMatrix type="matrix" values="0 0 0 0 0 0 0 0 0 0 0 0 0 0 0 0 0 0 0.25 0"/>
<feBlend mode="normal" in2="BackgroundImageFix" result="effect1_dropShadow_628_516"/>
<feBlend mode="normal" in="SourceGraphic" in2="effect1_dropShadow_628_516" result="shape"/>
</filter>
</defs>
</svg>
