<svg width="108" height="100" viewBox="0 0 108 100" fill="none" xmlns="http://www.w3.org/2000/svg">
<g clip-path="url(#clip0_628_603)" filter="url(#filter0_d_628_603)">
<path d="M50.6655 87.1791H20.7647C18.2771 87.1763 16.261 85.1604 16.2583 82.6727V71.057C16.2612 68.5693 18.2771 66.5532 20.7647 66.5505H50.6655C53.1531 66.5534 55.1692 68.5693 55.1719 71.057V82.6727C55.169 85.1604 53.1531 87.1764 50.6655 87.1791ZM20.7647 68.8941C19.5708 68.8955 18.6032 69.863 18.6021 71.0568V82.6725C18.6034 83.8665 19.571 84.834 20.7647 84.8352H50.6655C51.8594 84.8338 52.8268 83.8663 52.8281 82.6725V71.0568C52.8268 69.8629 51.8592 68.8955 50.6655 68.8941H20.7647Z" fill="#44C697"/>
<path d="M14.0955 87.1791H8.50643C6.01875 87.1764 4.00287 85.1603 4 82.6726V60.4356C4.00287 57.948 6.01875 55.9319 8.50643 55.9292H14.0953C16.583 55.9321 18.599 57.948 18.6017 60.4356V82.6726C18.599 85.1603 16.5831 87.1764 14.0955 87.1791ZM8.50643 58.273C7.31251 58.2743 6.34511 59.2417 6.34375 60.4356V82.6726C6.34511 83.8666 7.31267 84.834 8.50643 84.8353H14.0953C15.2892 84.834 16.2566 83.8664 16.258 82.6726V60.4356C16.2566 59.2417 15.2892 58.2741 14.0953 58.273H8.50643Z" fill="#44C697"/>
<path d="M90.5699 78.0366H17.4301C16.783 78.0366 16.2583 77.512 16.2583 76.8648C16.2583 76.2177 16.783 75.6929 17.4301 75.6929H90.5701C91.2172 75.6929 91.7419 76.2175 91.7419 76.8648C91.7419 77.5121 91.2172 78.0366 90.5699 78.0366Z" fill="#44C697"/>
<path d="M50.6655 68.894H20.7647C18.2771 68.8911 16.261 66.8753 16.2583 64.3876V46.5406C16.2612 44.0529 18.2771 42.0369 20.7647 42.0342H50.6655C53.1531 42.0371 55.1692 44.0529 55.1719 46.5406V64.3876C55.169 66.8753 53.1531 68.8913 50.6655 68.894ZM20.7647 44.3778C19.5708 44.3791 18.6032 45.3465 18.6021 46.5404V64.3874C18.6034 65.5813 19.571 66.5489 20.7647 66.5501H50.6655C51.8594 66.5487 52.8268 65.5812 52.8281 64.3874V46.5406C52.8268 45.3467 51.8592 44.3791 50.6655 44.3779L20.7647 44.3778Z" fill="#44C697"/>
<path d="M87.2353 68.894H57.3345C54.8469 68.8911 52.8308 66.8753 52.8281 64.3876V46.5406C52.831 44.0529 54.8469 42.0369 57.3345 42.0342H87.2353C89.723 42.0371 91.739 44.0529 91.7417 46.5406V64.3876C91.739 66.8753 89.7231 68.8913 87.2353 68.894ZM57.3345 44.3778C56.1406 44.3791 55.1731 45.3467 55.1719 46.5404V64.3874C55.1732 65.5813 56.1408 66.5487 57.3345 66.5501H87.2353C88.4292 66.5487 89.3968 65.5812 89.398 64.3874V46.5406C89.3966 45.3467 88.429 44.3791 87.2353 44.3779L57.3345 44.3778Z" fill="#44C697"/>
<path d="M87.2353 87.1791H57.3345C54.8469 87.1763 52.8308 85.1604 52.8281 82.6727V71.057C52.831 68.5693 54.8469 66.5532 57.3345 66.5505H87.2353C89.723 66.5534 91.739 68.5693 91.7417 71.057V82.6727C91.739 85.1604 89.7231 87.1764 87.2353 87.1791ZM57.3345 68.8941C56.1406 68.8955 55.1732 69.863 55.1719 71.0568V82.6725C55.1732 83.8665 56.1408 84.8338 57.3345 84.8352H87.2353C88.4292 84.8338 89.3968 83.8663 89.398 82.6725V71.0568C89.3966 69.8629 88.429 68.8953 87.2353 68.8941H57.3345Z" fill="#44C697"/>
<path d="M99.4935 87.1791H93.9047C91.417 87.1762 89.401 85.1603 89.3983 82.6726V60.4356C89.4011 57.948 91.417 55.9319 93.9047 55.9292H99.4935C101.981 55.9321 103.997 57.948 104 60.4356V82.6726C103.997 85.1603 101.981 87.1764 99.4935 87.1791ZM93.9045 58.273C92.7106 58.2743 91.7432 59.2417 91.7418 60.4356V82.6726C91.7432 83.8666 92.7108 84.834 93.9045 84.8353H99.4934C100.687 84.834 101.655 83.8664 101.656 82.6725V60.4356C101.655 59.2417 100.687 58.2741 99.4934 58.273H93.9045Z" fill="#44C697"/>
<path d="M56.7396 68.8941H51.2604C50.6133 68.8941 50.0886 68.3694 50.0886 67.7223C50.0886 67.0751 50.6133 66.5503 51.2604 66.5503H56.7396C57.3867 66.5503 57.9116 67.075 57.9116 67.7223C57.9116 68.3696 57.3867 68.8941 56.7396 68.8941Z" fill="#44C697"/>
<path d="M75.4504 38.6387H32.5495C31.9024 38.6387 31.3777 38.1141 31.3777 37.4668V9.62467C31.3777 8.97754 31.9024 8.45288 32.5495 8.45288H75.4504C76.0976 8.45288 76.6222 8.97754 76.6222 9.62467V37.4668C76.6222 38.1139 76.0976 38.6387 75.4504 38.6387ZM33.7215 36.295H74.2787V10.7965H33.7215V36.295Z" fill="#44C697"/>
<path d="M71.5469 34.735H36.4531C35.8059 34.735 35.2813 34.2104 35.2813 33.5631V13.5282C35.2813 12.8811 35.8059 12.3564 36.4531 12.3564H71.5469C72.1942 12.3564 72.7188 12.8811 72.7188 13.5282V33.5631C72.7187 34.2104 72.194 34.735 71.5469 34.735ZM37.625 32.3913H70.3751V14.7002H37.625V32.3913Z" fill="#44C697"/>
<path d="M40.6535 30.4398C40.0063 30.4398 39.4815 29.9152 39.4815 29.268C39.4815 28.9572 39.605 28.6591 39.8247 28.4393L45.8511 22.4128C46.3087 21.9552 47.0508 21.9552 47.5084 22.4128L51.1655 26.0697C51.6231 26.5273 51.6231 27.2694 51.1655 27.727C50.7079 28.1846 49.9658 28.1846 49.5082 27.727L46.6798 24.8988L41.482 30.0966C41.2626 30.3167 40.9643 30.4402 40.6535 30.4398Z" fill="#44C697"/>
<path d="M67.3461 30.3798C67.0352 30.3802 66.7369 30.2567 66.5175 30.0366C65.0915 28.6106 63.6655 27.1839 62.2395 25.7565C60.6337 24.1528 59.0292 22.5482 57.4259 20.9428L56.6742 20.1916C56.4374 19.955 56.2006 19.7183 55.9638 19.4817L49.4418 26.0036C48.9842 26.4612 48.2421 26.4612 47.7845 26.0036C47.3269 25.546 47.3269 24.804 47.7845 24.3464L55.1356 16.9953C55.3553 16.7756 55.6535 16.6521 55.9643 16.6521H55.9651C56.2763 16.6523 56.5744 16.7763 56.7942 16.9965C57.3057 17.5094 57.8178 18.0219 58.331 18.5339L59.0839 19.2862C60.6866 20.891 62.291 22.4954 63.8971 24.0994C65.3217 25.5261 66.7477 26.9528 68.1751 28.3795C68.6327 28.8371 68.6327 29.5791 68.1751 30.0368C67.9548 30.2563 67.6569 30.3798 67.3461 30.3798Z" fill="#44C697"/>
<path d="M63.0688 26.1003C62.7582 26.1003 62.4602 25.9771 62.2405 25.7575C60.6334 24.1526 59.0285 22.5477 57.4256 20.9427C57.092 20.6087 56.9913 20.107 57.1704 19.6702C58.1886 17.1856 61.0281 15.9969 63.5128 17.015C65.9974 18.0332 67.1861 20.8727 66.168 23.3574C65.6742 24.5623 64.7177 25.5189 63.5128 26.0126C63.372 26.0706 63.2212 26.1003 63.0688 26.1003ZM59.7176 19.921C60.8981 21.1026 62.0796 22.2841 63.2624 23.4658C64.3398 22.5854 64.4994 20.9984 63.619 19.921C62.7386 18.8437 61.1516 18.6841 60.0742 19.5645C59.9438 19.671 59.8242 19.7905 59.7176 19.921Z" fill="#44C697"/>
<path d="M96.699 91.547C95.2829 91.5487 94.0485 90.5844 93.7074 89.21L92.9794 86.2906C92.8228 85.6626 93.2049 85.0266 93.8329 84.87C93.9257 84.8469 94.0209 84.8352 94.1165 84.8352H99.2814C99.9285 84.8352 100.453 85.3599 100.453 86.007C100.453 86.1026 100.442 86.1979 100.419 86.2906L99.6905 89.21C99.3495 90.5844 98.115 91.5489 96.699 91.547ZM95.6165 87.179L95.9816 88.6428C96.0804 89.0389 96.4816 89.2801 96.8779 89.1813C97.1431 89.1151 97.3502 88.908 97.4164 88.6428L97.7814 87.1788L95.6165 87.179Z" fill="#44C697"/>
<path d="M11.301 91.547C9.88497 91.5487 8.65051 90.5844 8.30946 89.21L7.58142 86.2906C7.42483 85.6626 7.80693 85.0266 8.43497 84.87C8.52771 84.8469 8.62298 84.8352 8.71859 84.8352H13.8835C14.5306 84.8352 15.0554 85.3599 15.0554 86.007C15.0554 86.1026 15.0438 86.1979 15.0206 86.2906L14.2926 89.21C13.9514 90.5844 12.7169 91.5489 11.301 91.547ZM10.2186 87.179L10.5836 88.6428C10.6824 89.0389 11.0836 89.2801 11.4799 89.1813C11.7451 89.1151 11.9522 88.908 12.0184 88.6428L12.3835 87.1788L10.2186 87.179Z" fill="#44C697"/>
</g>
<defs>
<filter id="filter0_d_628_603" x="0" y="0" width="108" height="108" filterUnits="userSpaceOnUse" color-interpolation-filters="sRGB">
<feFlood flood-opacity="0" result="BackgroundImageFix"/>
<feColorMatrix in="SourceAlpha" type="matrix" values="0 0 0 0 0 0 0 0 0 0 0 0 0 0 0 0 0 0 127 0" result="hardAlpha"/>
<feOffset dy="4"/>
<feGaussianBlur stdDeviation="2"/>
<feComposite in2="hardAlpha" operator="out"/>
<feColorMatrix type="matrix" values="0 0 0 0 0 0 0 0 0 0 0 0 0 0 0 0 0 0 0.25 0"/>
<feBlend mode="normal" in2="BackgroundImageFix" result="effect1_dropShadow_628_603"/>
<feBlend mode="normal" in="SourceGraphic" in2="effect1_dropShadow_628_603" result="shape"/>
</filter>
<clipPath id="clip0_628_603">
<rect width="100" height="100" fill="white" transform="translate(4)"/>
</clipPath>
</defs>
</svg>
